<svg version="1.1" xmlns="http://www.w3.org/2000/svg" x="0" y="0" viewBox="0 0 460 460" xml:space="preserve"><path d="M391.571 408.889V0h-20v91.586H88.428V0h-20v408.889H45.824V460h368.353v-51.111h-22.606zm-20-113.808H88.428v-91.748H371.57l.001 91.748zm0-193.495v91.747H88.428v-91.747h283.143zM88.428 305.081H371.57v103.808H88.428V305.081z" fill="#59595a"/><path d="M131.914 130.773c-7.597 0-13.756-6.159-13.756-13.756V76.155c0-7.597 6.159-13.756 13.756-13.756s13.756 6.159 13.756 13.756v40.862c.001 7.597-6.159 13.756-13.756 13.756z" fill="#abcb57"/><path d="M131.914 62.4v68.373c7.597 0 13.756-6.159 13.756-13.756V76.156c.001-7.598-6.159-13.756-13.756-13.756z" opacity=".3" fill="#5b5b5f"/><path d="M174.079 130.773c-7.597 0-13.756-6.159-13.756-13.756V76.155c0-7.597 6.159-13.756 13.756-13.756s13.756 6.159 13.756 13.756v40.862c0 7.597-6.159 13.756-13.756 13.756z" fill="#abcb57"/><path d="M174.079 62.4v68.373c7.597 0 13.756-6.159 13.756-13.756V76.156c0-7.598-6.159-13.756-13.756-13.756z" opacity=".3" fill="#5b5b5f"/><path d="M216.243 130.773c-7.597 0-13.756-6.159-13.756-13.756V76.155c0-7.597 6.159-13.756 13.756-13.756s13.756 6.159 13.756 13.756v40.862c0 7.597-6.159 13.756-13.756 13.756z" fill="#abcb57"/><path d="M216.243 62.4v68.373c7.597 0 13.756-6.159 13.756-13.756V76.156c0-7.598-6.159-13.756-13.756-13.756z" opacity=".3" fill="#5b5b5f"/><path d="M319.088 232.52c-7.597 0-13.756-6.159-13.756-13.756v-40.862c0-7.597 6.159-13.756 13.756-13.756s13.756 6.159 13.756 13.756v40.862c0 7.597-6.159 13.756-13.756 13.756z" fill="#e5c400"/><path d="M319.088 164.147v68.373c7.597 0 13.756-6.159 13.756-13.756v-40.861c0-7.597-6.159-13.756-13.756-13.756z" opacity=".3" fill="#5b5b5f"/><path d="M152.997 334.267c-7.597 0-13.756-6.159-13.756-13.756V279.65c0-7.597 6.159-13.756 13.756-13.756s13.756 6.159 13.756 13.756v40.862c0 7.597-6.159 13.755-13.756 13.755z" fill="#c8523b"/><path d="M152.996 265.895v68.373c7.597 0 13.756-6.159 13.756-13.756V279.65c.001-7.597-6.158-13.755-13.756-13.755z" opacity=".3" fill="#5b5b5f"/><path d="M195.161 334.267c-7.597 0-13.756-6.159-13.756-13.756V279.65c0-7.597 6.159-13.756 13.756-13.756s13.756 6.159 13.756 13.756v40.862c0 7.597-6.159 13.755-13.756 13.755z" fill="#c8523b"/><path d="M195.161 265.895v68.373c7.597 0 13.756-6.159 13.756-13.756V279.65c0-7.597-6.159-13.755-13.756-13.755z" opacity=".3" fill="#5b5b5f"/><path opacity=".4" fill="#5b5b5f" d="M45.824 434.444h368.352V460H45.824z"/></svg>