<?xml version="1.0" encoding="UTF-8"?>
<svg enable-background="new 0 0 56 56" version="1.1" viewBox="0 0 56 56" xml:space="preserve" xmlns="http://www.w3.org/2000/svg">
<rect width="28" height="28" fill="#EBBA16"/>
<rect x="28" width="28" height="28" fill="#ED8A19"/>
<rect y="28" width="28" height="28" fill="#ED8A19"/>
<rect x="28" y="28" width="28" height="28" fill="#556080"/>
<path d="m48 46h-12c-0.552 0-1-0.447-1-1s0.448-1 1-1h12c0.552 0 1 0.447 1 1s-0.448 1-1 1z" fill="#fff"/>
<path d="m48 40h-12c-0.552 0-1-0.447-1-1s0.448-1 1-1h12c0.552 0 1 0.447 1 1s-0.448 1-1 1z" fill="#fff"/>
<path d="M14,43c-0.256,0-0.512-0.098-0.707-0.293c-0.391-0.391-0.391-1.023,0-1.414l5-5  c0.391-0.391,1.023-0.391,1.414,0s0.391,1.023,0,1.414l-5,5C14.512,42.902,14.256,43,14,43z" fill="#fff"/>
<path d="M9,48c-0.256,0-0.512-0.098-0.707-0.293c-0.391-0.391-0.391-1.023,0-1.414l5-5  c0.391-0.391,1.023-0.391,1.414,0s0.391,1.023,0,1.414l-5,5C9.512,47.902,9.256,48,9,48z" fill="#fff"/>
<path d="M19,48c-0.256,0-0.512-0.098-0.707-0.293l-5-5c-0.391-0.391-0.391-1.023,0-1.414s1.023-0.391,1.414,0  l5,5c0.391,0.391,0.391,1.023,0,1.414C19.512,47.902,19.256,48,19,48z" fill="#fff"/>
<path d="M14,43c-0.256,0-0.512-0.098-0.707-0.293l-5-5c-0.391-0.391-0.391-1.023,0-1.414s1.023-0.391,1.414,0  l5,5c0.391,0.391,0.391,1.023,0,1.414C14.512,42.902,14.256,43,14,43z" fill="#fff"/>
<path d="m20 15h-12c-0.552 0-1-0.447-1-1s0.448-1 1-1h12c0.552 0 1 0.447 1 1s-0.448 1-1 1z" fill="#fff"/>
<path d="m14 21c-0.552 0-1-0.447-1-1v-12c0-0.553 0.448-1 1-1s1 0.447 1 1v12c0 0.553-0.448 1-1 1z" fill="#fff"/>
<path d="m48 15h-12c-0.552 0-1-0.447-1-1s0.448-1 1-1h12c0.552 0 1 0.447 1 1s-0.448 1-1 1z" fill="#fff"/>
</svg>
