<svg xmlns="http://www.w3.org/2000/svg" version="1.1" x="0" y="0" width="512" height="512" viewBox="0 0 93.535 93.535" xml:space="preserve"><path d="M49.108 20.104l-.304 1.073c-1.568 5.198-13.476 54.508-14.439 58.497-.22.605-1.678 4.428-4.373 4.428-4.456 0-6.463-6.518-6.463-6.545-.715-2.504-3.328-3.934-5.83-3.219-2.503.715-3.933 3.328-3.218 5.831 1.43 4.95 6.325 13.366 15.539 13.366 7.976 0 12.211-7.068 13.421-11.248a.84.84 0 0 0 .055-.221c4.428-18.344 13.119-54.125 14.329-58.167l.33-1.127c.963-3.301 3.905-13.339 7.729-13.339 3.355 0 3.934 5.748 3.934 5.886a4.71 4.71 0 0 0 5.061 4.317c2.585-.192 4.538-2.475 4.346-5.06C78.839 9.543 75.539 0 65.886 0 54.993 0 51.032 13.585 49.108 20.104z" fill="#6b32c7"/></svg>