<svg xmlns="http://www.w3.org/2000/svg" version="1.1" x="0" y="0" width="512" height="512" viewBox="0 0 142.514 142.514" xml:space="preserve"><g fill="#006DF0"><path d="M34.367 142.514c11.645 0 17.827-10.4 19.645-16.544.029-.097.056-.196.081-.297 4.236-17.545 10.984-45.353 15.983-65.58h17.886a6.09 6.09 0 1 0 0-12.18H73.103c1.6-6.373 2.771-10.912 3.232-12.461l.512-1.734c1.888-6.443 6.309-21.535 13.146-21.535 6.34 0 7.285 9.764 7.328 10.236.27 3.343 3.186 5.868 6.537 5.579a6.089 6.089 0 0 0 5.605-6.539C108.894 14.036 104.087 0 89.991 0 74.03 0 68.038 20.458 65.159 30.292l-.49 1.659c-.585 1.946-2.12 7.942-4.122 15.962H39.239a6.09 6.09 0 0 0-6.09 6.09 6.09 6.09 0 0 0 6.09 6.09H57.53c-6.253 25.362-14.334 58.815-15.223 62.498-.332.965-2.829 7.742-7.937 7.742-7.8 0-11.177-10.948-11.204-11.03a6.083 6.083 0 0 0-7.544-4.156 6.092 6.092 0 0 0-4.156 7.545c2.131 7.361 9.35 19.822 22.901 19.822zM124.685 126.809c3.589 0 6.605-2.549 6.605-6.607 0-1.885-.754-3.586-2.359-5.474l-12.646-14.534 12.271-14.346c1.132-1.416 1.98-2.926 1.98-4.908 0-3.59-2.927-6.231-6.703-6.231-2.547 0-4.527 1.604-6.229 3.684l-9.531 12.454-9.343-12.456c-1.89-2.357-3.869-3.682-6.7-3.682-3.59 0-6.607 2.551-6.607 6.609 0 1.885.756 3.586 2.357 5.471l11.799 13.592-12.932 15.289c-1.227 1.416-1.98 2.926-1.98 4.908 0 3.589 2.926 6.229 6.699 6.229 2.549 0 4.53-1.604 6.229-3.682l10.19-13.4 10.193 13.4c1.894 2.363 3.876 3.684 6.707 3.684z"/></g></svg>