<svg xmlns="http://www.w3.org/2000/svg" version="1.1" x="0" y="0" viewBox="0 0 61.144 61.144" xml:space="preserve" width="512" height="512"><g fill="#3732c7"><path d="M50.024 48.734a.647.647 0 0 0-.312-.638c-.089-.494-.442-.946-1.087-.986a39.846 39.846 0 0 0-8.694.415c-1.736.274-3.949.454-5.602 1.332 4.093-9.052 10.388-19.316 10.837-29.324.334-7.442-3.041-15.338-10.288-18.249-15.813-6.351-29.21 12.207-21.537 26.165.032.059.076.098.118.14.147.316.467.539.882.397a36.63 36.63 0 0 1 7.784-1.78c.746-.088 1.074-.774.966-1.336.479.121 1.093-.352.96-.941a8.267 8.267 0 0 1-.019-5.077c5.085-2.726 7.445-2.044 7.079 2.047.11 2.294-.372 4.569-.919 6.783-1.13 4.577-2.782 9.237-4.692 13.544-2.54 5.728-8.618 12.085-5.931 18.789.238.595 1.02.784 1.484.506.154.371.495.65 1.053.623 8.594-.415 17.428-.677 25.956-1.92.735.384 1.849.048 1.782-1.004a55.971 55.971 0 0 1 .18-9.486zm-8.352-22.836c-1.347.035-2.712.216-4.047.32-.259.02-.264.422 0 .408 1.286-.07 2.607-.076 3.899-.2-.126.434-.257.868-.396 1.303-1.333.182-2.615.373-3.998.326-.201-.007-.189.282 0 .305 1.195.145 2.584.16 3.832-.108-.201.605-.412 1.21-.635 1.813-2.773-.029-5.579.182-8.352.374.591-1.923 1.079-3.904 1.34-5.866 2.937-.039 6.107-.279 8.929-1.02-.166.778-.354 1.56-.572 2.345zm-19.124-1.702a1.123 1.123 0 0 0-.423-.071c-2.629.054-5.401.802-7.74 2.06-1.933-6.649-1.664-14.194 3.558-19.386 4.6-4.573 12.369-5.718 17.916-2.397-3.235-.227-6.532-.023-9.739.315-.218.023-.225.363 0 .347 3.609-.264 7.147-.12 10.747.02.421.312.83.645 1.216 1.015a15.464 15.464 0 0 1 2.042 2.398c-5.583.123-11.17.352-16.747.609-.132.006-.134.207 0 .206 5.684-.049 11.375-.126 17.056-.316.421.668.797 1.35 1.099 2.054-7.237-.418-14.634.622-21.91.361-.206-.007-.204.306 0 .319 7.381.452 14.788-.569 22.126-.162.229.595.424 1.2.579 1.816-3.203-.204-6.505-.122-9.697-.009-.185.007-.183.275 0 .286 3.227.196 6.57.364 9.814.232.125.576.232 1.158.299 1.75-2.796.062-5.509.116-8.325-.277-.272-.038-.395.374-.116.42 2.763.458 5.698.738 8.511.421.046.552.07 1.11.07 1.673-2.334.029-4.663.194-7.005.126-.242-.007-.24.363 0 .375 2.3.12 4.689.233 7.004.022-.036 1.556-.232 3.147-.554 4.755-2.981.204-6 .703-8.976 1.106.3-2.495.209-4.954-.618-7.215-3.561-9.727-13.378-.525-10.187 7.147zm25.159 28.503c-.028-.009-.044-.033-.078-.033-7.751.012-15.528.517-23.25 1.153-.187.015-.192.306 0 .295 7.75-.425 15.496-.594 23.25-.867.013 0 .017-.012.029-.014-.063.612-.136 1.223-.168 1.836-7.789.461-15.578.927-23.363 1.451-.218.015-.222.352 0 .342 7.779-.346 15.556-.75 23.331-1.16a34.068 34.068 0 0 0-.023 1.777c-8.368-.462-17.036.341-25.329 1.258a1.222 1.222 0 0 0-.723.346c-.305-7.853 5.806-14.825 8.357-22.13.65-1.861 1.417-3.912 2.09-6.043 2.765-.057 5.565-.096 8.315-.359-.33.87-.678 1.737-1.041 2.597-1.479.251-2.942.424-4.475.368-.251-.009-.249.377 0 .389 1.403.067 2.856.014 4.257-.245-.323.753-.654 1.501-.992 2.241-2.474.169-4.958.472-7.43.676-.201.016-.199.334 0 .313.179-.023.359-.035.539-.045.027.021.04.036.073.059.408-.003.816-.014 1.224-.033a61.11 61.11 0 0 0 2.138-.122c1.073-.078 2.154-.158 3.218-.331-.386.837-.778 1.664-1.171 2.478-1.366.123-2.725.198-4.107.135-.23-.011-.227.34 0 .356 1.291.091 2.59.106 3.878-.017-.345.712-.69 1.413-1.03 2.102-1.619.069-3.266.3-4.858.471-.202.022-.211.335 0 .323 1.51-.084 3.079-.118 4.606-.284l-.896 1.814c-1.701.465-3.343.762-5.214.641-.21-.014-.203.302 0 .323 1.573.166 3.306.102 4.9-.323-.466.951-.912 1.873-1.32 2.752-1.845.264-3.665.419-5.565.363-.194-.006-.191.287 0 .3 1.761.118 3.575.083 5.341-.175-.131.286-.261.572-.383.85-.377.857.244 1.644.929 1.815a.411.411 0 0 0 .085.254c-2.565.155-5.131.237-7.726.083-.152-.009-.148.22 0 .234 4.005.387 7.926.18 11.936-.082 3.123-.204 7.637-.941 10.995-.461-.137.77-.257 1.546-.349 2.329zm.418-2.689c-2.614-.548-5.863-.054-8.304.1-.521.033-1.041.069-1.56.106.397-.098.794-.19 1.188-.253 2.912-.467 5.84-.572 8.781-.522-.04.188-.069.38-.105.569z"/><path d="M42.393 20.925c-2.598.037-5.16.283-7.767.176-.209-.008-.206.31 0 .324 2.562.171 5.275.307 7.817-.127.214-.037.16-.376-.05-.373zM38.628 6.778c-5.19-.412-10.544-.039-15.75.035-.202.003-.202.311 0 .314 5.205.074 10.56.447 15.75.035.247-.02.248-.365 0-.384z"/></g></svg>