<svg xmlns="http://www.w3.org/2000/svg" version="1.1" x="0" y="0" width="512" height="512" viewBox="0 0 142.109 142.109" xml:space="preserve"><path d="M135.778 122.206l-12.319-9.335a6.082 6.082 0 0 0-8.531 1.175c-1.387 1.829-1.555 4.178-.688 6.139H92.718c16.568-17.76 29.738-55.663 39.23-113.099a6.089 6.089 0 0 0-5.016-7.001 6.087 6.087 0 0 0-7.002 5.016c-13.864 83.895-32.692 106.334-42.68 112.243-.513.302-.994.551-1.463.772V23.862c.993.646 2.133 1.016 3.299 1.016a6.043 6.043 0 0 0 3.578-1.167 6.09 6.09 0 0 0 1.344-8.507L75.046 2.887A6.094 6.094 0 0 0 70.18.378c-1.864.049-3.749.875-4.913 2.412l-9.336 12.319a6.087 6.087 0 0 0 1.177 8.531c1.941 1.474 4.473 1.586 6.497.526v94.001c-19.92-6.285-39.564-68.366-47.599-113.149-.597-3.311-3.764-5.516-7.07-4.921a6.095 6.095 0 0 0-4.92 7.072c.222 1.228 5.508 30.444 15.296 60.191 8.273 25.145 17.062 42.634 26.541 52.825H10.014a6.09 6.09 0 1 0 0 12.181h104.929c-1.574 2.084-1.706 5.017-.091 7.237a6.081 6.081 0 0 0 4.933 2.507 6.042 6.042 0 0 0 3.576-1.167l12.32-8.96a6.094 6.094 0 0 0 2.509-4.863 6.094 6.094 0 0 0-2.412-4.914z" fill="#43c732"/></svg>