<svg xmlns="http://www.w3.org/2000/svg" version="1.1" x="0" y="0" width="512" height="512" viewBox="0 0 520.963 520.964" xml:space="preserve"><path d="M519.296 355.159c1.052.798 1.667 2.057 1.667 3.381s-.615 2.583-1.667 3.381l-104.78 80.564a4.274 4.274 0 0 1-6.579-4.966l17.461-44.188c-79.358-2.985-124.345-31.321-155.813-64.203 11.709-13.358 21.426-26.899 30.292-39.253 4.397-6.142 8.618-11.999 12.851-17.603 23.867 28.064 52.919 48.119 112.422 50.845l-17.212-43.562a4.302 4.302 0 0 1 1.401-4.989 4.321 4.321 0 0 1 2.571-.862c.916 0 1.844.296 2.612.881l104.774 80.574zM106.447 246.372a4.26 4.26 0 0 0 2.61.883c.901 0 1.817-.295 2.574-.866a4.263 4.263 0 0 0 1.398-4.986l-17.076-43.246c59.237 3.777 88.369 24.223 112.295 52.429 4.176-5.526 8.34-11.295 12.672-17.342 8.911-12.424 18.693-26.051 30.482-39.51-31.522-33.023-76.542-61.691-155.935-65.843l17.561-44.449a4.288 4.288 0 0 0-1.398-4.989 4.273 4.273 0 0 0-5.175.027L1.664 159.04A4.245 4.245 0 0 0 0 162.421c0 1.327.618 2.586 1.664 3.384l104.783 80.567zm182.448 35.636c31.297-43.637 56.56-78.773 136.112-83.845l-17.07 43.246a4.284 4.284 0 0 0 1.396 4.986c.768.57 1.666.866 2.577.866.91 0 1.832-.295 2.606-.884l104.78-80.567a4.25 4.25 0 0 0 1.667-3.384 4.248 4.248 0 0 0-1.667-3.381l-104.78-80.566a4.277 4.277 0 0 0-5.178-.027 4.285 4.285 0 0 0-1.401 4.989l17.567 44.449c-116.738 6.115-159.195 65.213-193.628 113.221-31.2 43.515-56.241 78.353-136.057 82.006l17.209-43.562a4.288 4.288 0 0 0-1.398-4.989 4.31 4.31 0 0 0-2.574-.862 4.33 4.33 0 0 0-2.61.881L1.664 355.159C.612 355.957 0 357.216 0 358.54s.618 2.583 1.664 3.381l104.783 80.564a4.27 4.27 0 0 0 5.175.023 4.268 4.268 0 0 0 1.401-4.989l-17.458-44.188c116.593-4.38 159.02-63.47 193.33-111.323z" fill="#f44336"/></svg>