<svg xmlns="http://www.w3.org/2000/svg" version="1.1" x="0" y="0" viewBox="0 0 110 110" xml:space="preserve" width="512" height="512"><path d="M87.792 60.94a26.107 26.107 0 0 1-.774-5.12 81.276 81.276 0 0 1 .003-7.975c.14-2.755.357-5.521 1.973-7.951.94-1.414.994-3.052.755-4.69-.166-1.139-1.157-2.089-2.305-2.291-1.884-.33-3.465.403-4.298 2.15-.441.93-.805 1.941-.955 2.952-.228 1.538-.854 2.879-1.672 4.144a45.534 45.534 0 0 0-4.247 8.316c-.247.641-.602 1.249-.976 1.826-.331.51-.853.739-1.485.699-.514-.033-.869-.477-.913-1.249a18.569 18.569 0 0 1-.037-1.733c.129-3.357-.153-6.695-.488-10.029a12.179 12.179 0 0 0-.601-2.678c-.321-.941-1.076-1.487-2.074-1.616a13.672 13.672 0 0 0-1.729-.092c-1.137-.001-1.951.517-2.532 1.513-.791 1.359-.871 2.697.272 3.811.938.91 1.113 1.938 1.101 3.13-.026 2.544.016 5.087-.016 7.63-.019 1.295.183 2.54.678 3.724.648 1.552 1.66 2.726 3.364 3.24 3.246.978 6.153.6 8.613-1.913.233-.238.565-.379.851-.563.118.291.338.582.337.874-.005 2.223.567 4.343 1.119 6.464 1.166 4.483 2.084 9.001 1.892 13.039 0 2.136.016 3.64-.004 5.142-.02 1.627-.301 3.195-.805 4.758-.701 2.173-2.179 3.238-4.347 3.321a93.507 93.507 0 0 1-7.28.009c-1.747-.068-3.392-.674-4.927-1.514-1.076-.588-1.483-1.413-1.199-2.582.27-1.115.532-2.268 1.04-3.283 1.242-2.48 2.751-4.811 4.459-7.007.938-1.208 2.036-1.775 3.619-1.265.86.279 1.806.383 2.717.401 1.529.03 2.738-.991 2.977-2.362.186-1.061-.409-2.27-1.583-2.83-1.246-.595-2.529-1.188-3.863-1.508-1.951-.47-3.886-.283-5.702.754a11.184 11.184 0 0 0-3.142 2.688c-2.345 2.877-4.306 6.002-5.931 9.34-1.094 2.246-1.382 4.615-1.252 7.082.095 1.838.848 3.322 2.105 4.615 1.241 1.276 2.77 2.094 4.399 2.698 5.592 2.075 11.297 2.11 17.035.728 2.619-.631 4.491-2.322 5.764-4.646.55-1.006.969-2.092 1.358-3.173 1.773-4.933 1.387-10.034.979-15.093-.321-4.028-1.289-7.964-2.273-11.885zm-53.066-.293c-1.469.469-2.761 1.237-3.637 2.519-1.105 1.619-2.131 3.295-3.161 4.963-.414.673-.991.96-1.735.885-2.146-.217-3.964-1.161-5.545-2.594-.812-.734-1.282-1.645-1.244-2.753.056-1.616.097-3.237.263-4.845.068-.663.424-1.305.698-1.936.043-.101.416-.188.503-.118.445.361.82.812 1.27 1.164.732.573 1.464.513 2.234-.001.726-.484 1.224-1.188 1.298-1.97.161-1.715.18-3.451.145-5.177-.02-.98-.65-1.711-1.446-2.256-2.559-1.757-5.79-1.345-7.788 1.068-.73.885-1.272 1.926-1.905 2.892-.398.606-.892.525-1.248-.205-.303-.622-.511-1.308-.902-1.864-2.196-3.111-4.996-3.092-7.717-.842a5.28 5.28 0 0 0-.713.758c-1.466 1.808-2.634 3.793-3.55 5.932-.516 1.207-.595 2.469-.524 3.743.071 1.304 1.062 2.404 2.32 2.688 1.28.289 2.546-.274 3.198-1.512.32-.606.507-1.285.749-1.934.239-.646.432-1.313.726-1.934.128-.275.435-.602.697-.639.196-.025.492.348.665.597.122.175.1.445.159.669 1.044 3.935 1.53 7.934 1.356 12.004 0 1.735.036 3.472-.018 5.205-.021.68-.217 1.358-.378 2.025-.101.425-.769.658-1.108.396-1.003-.778-1.978-1.594-2.981-2.372-.921-.714-1.892-.741-2.916-.187-1.515.82-2.045 2.224-1.307 3.797a11.135 11.135 0 0 0 4.947 5.19c4.02 2.115 7.898.479 9.399-3.37.634-1.625 1.177-3.258 1.233-5.018.022-.692.028-1.387.061-2.08.032-.66.325-.865.832-.587.606.335 1.181.733 1.802 1.036 2.304 1.117 4.68 1.892 7.293 1.978 3.108.103 5.396-1.123 6.808-3.85.793-1.532 1.365-3.18 2.067-4.76.833-1.871.787-3.825.61-5.795-.065-.737-.768-1.147-1.51-.91zm74.968-31.954c-.436-.875-1.891-1.554-2.98-1.341-.445.087-.882.263-1.296.453-.733.337-1.439.737-2.176 1.067-.262.119-.607.504-.854-.002-.086-.174-.072-.459.01-.644 1.114-2.484 1.423-5.095 1.22-7.808 0-1.131-.036-2.289.008-3.442.085-2.275-1.523-3.413-3.411-3.616-1.002-.106-2.135-.034-3.055.338-2.766 1.117-4.861 3.113-6.267 5.723-1.176 2.181-.616 4.482 1.192 5.895.555.434 1.342.371 1.897-.114.73-.642 1.125-1.463 1.26-2.396.142-.995.736-1.675 1.447-2.281.253-.215.595-.324.896-.481.133.391.409.794.373 1.17-.108 1.138-.195 2.312-.549 3.386-.467 1.415-1.192 2.742-1.788 4.114-.502 1.161-1.043 2.312-1.44 3.509-.166.503-.164 1.188.046 1.663.59 1.329 1.613 2.336 3.112 2.445 1.368.1 2.891.253 4.11-.224 2.566-1 5.012-2.335 7.44-3.658 1.106-.601 1.41-2.541.805-3.756zM56.888 54.541a4.141 4.141 0 0 0-1.023.145c-2.662.764-5.338 1.488-7.973 2.34-1.087.351-2.133.9-3.106 1.508-.556.35-1.05.932-1.354 1.52-.927 1.795.396 3.911 2.555 3.966.2-.023.56-.011.885-.109 2.539-.775 5.085-1.537 7.604-2.376 1.324-.44 2.559-1.117 3.494-2.185.447-.51.861-1.104 1.099-1.733.605-1.596-.509-3.119-2.181-3.076zm-12.683 1.836c3.123-.803 6.182-1.795 8.912-3.549.639-.41 1.139-1.126 1.535-1.801.739-1.259.251-2.464-1.094-3.107-1.116-.533-2.23-.445-3.352-.085-2.619.845-5.249 1.661-7.843 2.583-.734.261-1.408.781-2.015 1.295-1.208 1.022-1.055 3.029.25 3.861.886.566 1.845.93 3.066.854.084-.007.321.006.541-.051z" fill="#c73232" fill-rule="evenodd" clip-rule="evenodd"/></svg>