<svg xmlns="http://www.w3.org/2000/svg" version="1.1" x="0" y="0" width="512" height="512" viewBox="0 0 133.986 133.986" xml:space="preserve"><g fill="#933EC5"><path d="M51.158 14.617c4.037 0 7.309-3.271 7.309-7.308S55.196 0 51.158 0H36.542a7.309 7.309 0 0 0-7.309 7.309V126.68a7.308 7.308 0 0 0 7.309 7.307h14.616a7.309 7.309 0 0 0 0-14.617H43.85V14.617h7.308zM82.829 119.37a7.309 7.309 0 1 0 0 14.617h14.615a7.307 7.307 0 0 0 7.309-7.307V7.309A7.308 7.308 0 0 0 97.444 0H82.829a7.31 7.31 0 1 0 0 14.617h7.307V119.37h-7.307z"/></g></svg>