<svg version="1.1" xmlns="http://www.w3.org/2000/svg" x="0" y="0" viewBox="0 0 512 512" xml:space="preserve"><path d="M475.429 512H36.571C16.375 512 0 495.625 0 475.429V36.571C0 16.375 16.375 0 36.571 0h438.857C495.625 0 512 16.375 512 36.571v438.857C512 495.625 495.625 512 475.429 512" fill="#d71e00"/><g fill="#fff"><path d="M402.286 256c0-20.197-16.375-36.571-36.571-36.571S329.143 235.803 329.143 256s16.375 36.571 36.571 36.571 36.572-16.374 36.572-36.571M182.857 256c0-20.197-16.375-36.571-36.571-36.571S109.714 235.803 109.714 256s16.375 36.571 36.571 36.571 36.572-16.374 36.572-36.571M182.857 365.714c0-20.197-16.375-36.571-36.571-36.571s-36.571 16.375-36.571 36.571 16.375 36.571 36.571 36.571 36.571-16.374 36.571-36.571M182.857 146.286c0-20.197-16.375-36.571-36.571-36.571s-36.571 16.375-36.571 36.571 16.375 36.571 36.571 36.571 36.571-16.375 36.571-36.571M402.286 365.714c0-20.197-16.375-36.571-36.571-36.571s-36.571 16.375-36.571 36.571 16.375 36.571 36.571 36.571 36.571-16.374 36.571-36.571M402.286 146.286c0-20.197-16.375-36.571-36.571-36.571s-36.571 16.375-36.571 36.571 16.375 36.571 36.571 36.571 36.571-16.375 36.571-36.571"/></g><g fill="#f94a3d"><path d="M59.426 457.143a4.576 4.576 0 0 1-4.571-4.571V173.714a9.143 9.143 0 0 0-18.286 0v278.857c0 12.62 10.237 22.857 22.857 22.857h324.571a9.143 9.143 0 0 0 0-18.286H59.426zM54.857 59.43a4.57 4.57 0 0 1 4.571-4.571h393.143a4.57 4.57 0 0 1 4.571 4.571v393.143a4.576 4.576 0 0 1-4.571 4.571h-32a9.143 9.143 0 0 0 0 18.286h32c12.62 0 22.857-10.237 22.857-22.857V59.43c0-12.627-10.235-22.857-22.857-22.857H59.429c-12.622 0-22.857 10.23-22.857 22.857v41.143a9.143 9.143 0 0 0 18.286 0V59.43zM54.857 137.143c0-5.047-4.096-9.143-9.143-9.143s-9.143 4.096-9.143 9.143 4.096 9.143 9.143 9.143 9.143-4.096 9.143-9.143"/></g></svg>