<svg version="1.1" xmlns="http://www.w3.org/2000/svg" x="0" y="0" viewBox="0 0 58 58" xml:space="preserve"><path d="M31 26.962h26.924C56.94 12.541 45.421 1.022 31 .038v26.924z" fill="#f0785a"/><path d="M50.386 48.615c4.343-4.71 7.151-10.858 7.614-17.653H32.733l17.653 17.653z" fill="#f0c419"/><path d="M27 28.134V.038C11.918 1.067 0 13.619 0 28.962A28.883 28.883 0 0 0 7.134 48L27 28.134z" fill="#556080"/><path d="M28.414 32.376L9.962 50.828A28.883 28.883 0 0 0 29 57.962a28.85 28.85 0 0 0 18.401-6.599L28.414 32.376z" fill="#71c285"/></svg>