<svg xmlns="http://www.w3.org/2000/svg" version="1.1" x="0" y="0" width="512" height="512" viewBox="0 0 612 612" xml:space="preserve"><path d="M598.52 373.689c-7.433 0-13.479 6.008-13.479 13.48 0 105.299-69.212 116.738-98.983 116.738-77.8 0-117.239-55-117.239-163.381V108.13h135.148c7.434 0 13.48-6.008 13.48-13.48 0-7.434-6.047-13.48-13.48-13.48H13.48C6.047 81.208 0 87.216 0 94.688c0 7.433 6.047 13.48 13.48 13.48h147.936c2.08 22.878 22.146 286.666-144.662 398.011-6.201 4.16-7.857 12.48-3.736 18.643 2.581 3.928 6.855 6.008 11.246 6.008 2.542 0 5.161-.77 7.472-2.273C207.71 411.125 192.15 149.379 188.491 108.13h153.327v232.36c0 165.574 90.356 190.301 144.238 190.301 29.541 0 125.943-10.398 125.943-143.66.001-7.434-6.046-13.442-13.479-13.442z" fill="#c732ac"/></svg>