<svg xmlns="http://www.w3.org/2000/svg" version="1.1" x="0" y="0" viewBox="0 0 18 18" xml:space="preserve" width="512" height="512"><path d="M17.121 3.619c-.566-.566-1.32-.878-2.121-.878s-1.555.312-2.121.879c-.233.233-.546.361-.879.361s-.646-.129-.879-.362C9.755 2.254 7.936 1.501 6 1.501S2.245 2.254.879 3.619C.312 4.187 0 4.939 0 5.74s.312 1.555.879 2.121c.566.568 1.32.879 2.121.879v4.758c0 1.654 1.346 3 3 3s3-1.346 3-3c0 1.654 1.346 3 3 3s3-1.346 3-3V9.332a7.21 7.21 0 0 0 2.12-1.47c.568-.567.88-1.32.88-2.122s-.312-1.553-.879-2.121zm-1.414 2.829A5.222 5.222 0 0 1 13 7.885v5.614a1 1 0 1 1-2 0V7.884a5.215 5.215 0 0 1-2.707-1.437A3.201 3.201 0 0 0 7 5.672v7.826a1 1 0 1 1-2 0V5.672a3.164 3.164 0 0 0-1.293.776.997.997 0 0 1-1.414-.001.999.999 0 0 1 0-1.414C3.314 4.012 4.657 3.501 6 3.501s2.685.511 3.707 1.532A3.235 3.235 0 0 0 12 5.981c.831 0 1.661-.316 2.293-.948a1.001 1.001 0 0 1 1.414 0 1 1 0 0 1 0 1.415z" fill="#c7ba32"/></svg>