<svg version="1.1" xmlns="http://www.w3.org/2000/svg" x="0" y="0" viewBox="0 0 60 60" xml:space="preserve"><path d="M30 36.5a1 1 0 0 1-1-1v-19a1 1 0 1 1 2 0v19a1 1 0 0 1-1 1z" fill="#556080"/><path d="M48.999 49.5a.994.994 0 0 1-.563-.175l-18.42-12.603-17.43 12.588a1 1 0 0 1-1.171-1.621l18.57-13.412 19.58 13.397a1 1 0 0 1-.566 1.826z" fill="#556080"/><path d="M30 9.5a.997.997 0 0 1-.707-.293l-3-3a.999.999 0 1 1 1.414-1.414l3 3A.999.999 0 0 1 30 9.5z" fill="#dc691d"/><path d="M30 9.5a.999.999 0 0 1-.707-1.707l3-3a.999.999 0 1 1 1.414 1.414l-3 3A.997.997 0 0 1 30 9.5z" fill="#dc691d"/><path d="M30 12.5a1 1 0 0 1-1-1v-3a1 1 0 1 1 2 0v3a1 1 0 0 1-1 1z" fill="#dc691d"/><path d="M59 55.5a.997.997 0 0 1-.707-.293l-6-6a.999.999 0 1 1 1.414-1.414l6 6A.999.999 0 0 1 59 55.5z" fill="#26b99a"/><path d="M53 55.5a.999.999 0 0 1-.707-1.707l6-6a.999.999 0 1 1 1.414 1.414l-6 6A.997.997 0 0 1 53 55.5z" fill="#26b99a"/><path d="M7 49.5H1a1 1 0 1 1 0-2h6a1 1 0 1 1 0 2z" fill="#1081e0"/><path d="M1 55.5a.999.999 0 0 1-.707-1.707l6-6a.999.999 0 1 1 1.414 1.414l-6 6A.997.997 0 0 1 1 55.5z" fill="#1081e0"/><path d="M7 55.5H1a1 1 0 1 1 0-2h6a1 1 0 1 1 0 2z" fill="#1081e0"/></svg>