<?xml version="1.0" encoding="iso-8859-1"?>
<!-- Generator: Adobe Illustrator 19.0.0, SVG Export Plug-In . SVG Version: 6.00 Build 0)  -->
<svg version="1.1" id="Layer_1" xmlns="http://www.w3.org/2000/svg" xmlns:xlink="http://www.w3.org/1999/xlink" x="0px" y="0px"
	 viewBox="0 0 460 460" style="enable-background:new 0 0 460 460;" xml:space="preserve">
<path style="fill:#59595A;" d="M391.571,408.889V0h-20v91.586H88.428V0h-20v408.889H45.824V460h368.353v-51.111H391.571z
	 M371.571,295.081H88.428v-91.748H371.57L371.571,295.081L371.571,295.081z M371.571,101.586v91.747H88.428v-91.747
	C88.428,101.586,371.571,101.586,371.571,101.586z M88.428,305.081H371.57v103.808H88.428V305.081z"/>
<path style="fill:#ABCB57;" d="M131.914,130.773L131.914,130.773c-7.597,0-13.756-6.159-13.756-13.756V76.155
	c0-7.597,6.159-13.756,13.756-13.756l0,0c7.597,0,13.756,6.159,13.756,13.756v40.862
	C145.671,124.614,139.511,130.773,131.914,130.773z"/>
<path style="opacity:0.3;fill:#5B5B5F;enable-background:new    ;" d="M131.914,62.4v68.373c7.597,0,13.756-6.159,13.756-13.756
	V76.156C145.671,68.558,139.511,62.4,131.914,62.4z"/>
<path style="fill:#ABCB57;" d="M174.079,130.773L174.079,130.773c-7.597,0-13.756-6.159-13.756-13.756V76.155
	c0-7.597,6.159-13.756,13.756-13.756l0,0c7.597,0,13.756,6.159,13.756,13.756v40.862
	C187.835,124.614,181.676,130.773,174.079,130.773z"/>
<path style="opacity:0.3;fill:#5B5B5F;enable-background:new    ;" d="M174.079,62.4v68.373c7.597,0,13.756-6.159,13.756-13.756
	V76.156C187.835,68.558,181.676,62.4,174.079,62.4z"/>
<path style="fill:#ABCB57;" d="M216.243,130.773L216.243,130.773c-7.597,0-13.756-6.159-13.756-13.756V76.155
	c0-7.597,6.159-13.756,13.756-13.756l0,0c7.597,0,13.756,6.159,13.756,13.756v40.862
	C229.999,124.614,223.84,130.773,216.243,130.773z"/>
<path style="opacity:0.3;fill:#5B5B5F;enable-background:new    ;" d="M216.243,62.4v68.373c7.597,0,13.756-6.159,13.756-13.756
	V76.156C229.999,68.558,223.84,62.4,216.243,62.4z"/>
<path style="fill:#E5C400;" d="M319.088,232.52L319.088,232.52c-7.597,0-13.756-6.159-13.756-13.756v-40.862
	c0-7.597,6.159-13.756,13.756-13.756l0,0c7.597,0,13.756,6.159,13.756,13.756v40.862C332.844,226.361,326.685,232.52,319.088,232.52
	z"/>
<path style="opacity:0.3;fill:#5B5B5F;enable-background:new    ;" d="M319.088,164.147v68.373c7.597,0,13.756-6.159,13.756-13.756
	v-40.861C332.844,170.306,326.685,164.147,319.088,164.147z"/>
<path style="fill:#C8523B;" d="M152.997,334.267L152.997,334.267c-7.597,0-13.756-6.159-13.756-13.756V279.65
	c0-7.597,6.159-13.756,13.756-13.756l0,0c7.597,0,13.756,6.159,13.756,13.756v40.862
	C166.753,328.109,160.594,334.267,152.997,334.267z"/>
<path style="opacity:0.3;fill:#5B5B5F;enable-background:new    ;" d="M152.996,265.895v68.373c7.597,0,13.756-6.159,13.756-13.756
	V279.65C166.753,272.053,160.594,265.895,152.996,265.895z"/>
<path style="fill:#C8523B;" d="M195.161,334.267L195.161,334.267c-7.597,0-13.756-6.159-13.756-13.756V279.65
	c0-7.597,6.159-13.756,13.756-13.756l0,0c7.597,0,13.756,6.159,13.756,13.756v40.862
	C208.917,328.109,202.758,334.267,195.161,334.267z"/>
<path style="opacity:0.3;fill:#5B5B5F;enable-background:new    ;" d="M195.161,265.895v68.373c7.597,0,13.756-6.159,13.756-13.756
	V279.65C208.917,272.053,202.758,265.895,195.161,265.895z"/>
<rect x="45.824" y="434.444" style="opacity:0.4;fill:#5B5B5F;enable-background:new    ;" width="368.352" height="25.556"/>
<g>
</g>
<g>
</g>
<g>
</g>
<g>
</g>
<g>
</g>
<g>
</g>
<g>
</g>
<g>
</g>
<g>
</g>
<g>
</g>
<g>
</g>
<g>
</g>
<g>
</g>
<g>
</g>
<g>
</g>
</svg>
