<?xml version="1.0" encoding="iso-8859-1"?>
<!-- Generator: Adobe Illustrator 16.0.0, SVG Export Plug-In . SVG Version: 6.00 Build 0)  -->
<!DOCTYPE svg PUBLIC "-//W3C//DTD SVG 1.1//EN" "http://www.w3.org/Graphics/SVG/1.1/DTD/svg11.dtd">
<svg xmlns="http://www.w3.org/2000/svg" xmlns:xlink="http://www.w3.org/1999/xlink" version="1.1" id="Capa_1" x="0px" y="0px" width="512px" height="512px" viewBox="0 0 612 612" style="enable-background:new 0 0 612 612;" xml:space="preserve">
<g>
	<path d="M598.52,373.689c-7.433,0-13.479,6.008-13.479,13.48c0,105.299-69.212,116.738-98.983,116.738   c-77.8,0-117.239-55-117.239-163.381V108.13h135.148c7.434,0,13.48-6.008,13.48-13.48c0-7.434-6.047-13.48-13.48-13.48H13.48   C6.047,81.208,0,87.216,0,94.688c0,7.433,6.047,13.48,13.48,13.48h147.936c2.08,22.878,22.146,286.666-144.662,398.011   c-6.201,4.16-7.857,12.48-3.736,18.643c2.581,3.928,6.855,6.008,11.246,6.008c2.542,0,5.161-0.77,7.472-2.273   C207.71,411.125,192.15,149.379,188.491,108.13h153.327v232.36c0,165.574,90.356,190.301,144.238,190.301   c29.541,0,125.943-10.398,125.943-143.66C612,379.697,605.953,373.689,598.52,373.689z" fill="#c732ac"/>
</g>
<g>
</g>
<g>
</g>
<g>
</g>
<g>
</g>
<g>
</g>
<g>
</g>
<g>
</g>
<g>
</g>
<g>
</g>
<g>
</g>
<g>
</g>
<g>
</g>
<g>
</g>
<g>
</g>
<g>
</g>
</svg>
